<svg width="62" height="63" viewBox="0 0 62 63" fill="none" xmlns="http://www.w3.org/2000/svg">
<path d="M19.7155 6.84848C17.5573 7.54789 15.8048 8.33833 13.7239 9.55088C13.0484 9.94466 12.8628 10.1007 12.9158 10.2306C13.3954 11.4042 13.4983 12.9935 13.1724 14.1964C12.842 15.4165 12.4108 16.1327 11.4421 17.0702C10.5069 17.9753 9.68746 18.4416 8.53841 18.7229C7.61124 18.9498 5.88799 18.8739 5.0068 18.5672L4.37638 18.3478L4.21545 18.5555C3.45332 19.5388 1.86695 22.6845 1.13466 24.6644C0.756187 25.6878 -0.051606 28.5108 0.018944 28.5638C0.0348678 28.5758 0.401855 28.7647 0.83433 28.9837C2.19492 29.6724 3.39912 31.0576 3.91733 32.5301C4.10304 33.0578 4.14828 33.4279 4.15366 34.4654C4.16104 35.8657 4.10757 36.0968 3.48928 37.339C2.97181 38.3786 1.81696 39.5214 0.786136 40.0139C0.380131 40.2078 0.029806 40.3765 0.00776563 40.3886C-0.069639 40.431 0.447201 42.4305 0.863752 43.6999C1.49406 45.6211 2.27454 47.3199 3.6229 49.7057C3.6867 49.8185 3.76368 49.934 3.79405 49.9622C3.82442 49.9904 3.92914 50.136 4.0269 50.2856L4.20459 50.5576L4.86812 50.2938C5.40331 50.081 5.7607 50.0209 6.7156 49.9833C7.77406 49.9415 7.99257 49.9648 8.77695 50.2028C10.9079 50.8493 12.6251 52.6405 13.1336 54.7471C13.4276 55.9651 13.2616 57.562 12.7126 58.7981C12.5947 59.0636 15.0219 60.44 17.4148 61.4649C18.3248 61.8545 21.0377 62.7907 21.2571 62.7907C21.3157 62.7907 21.4479 62.6189 21.5508 62.409C21.8544 61.7894 22.7375 60.7821 23.4054 60.2935C24.2695 59.6613 25.4248 59.2123 26.3915 59.1327L27.1723 59.0685L27.2398 57.9278C27.277 57.3003 27.3076 55.4686 27.3078 53.8574L27.3083 50.9278L26.9129 50.905C26.2145 50.8644 25.6963 50.7772 24.6615 50.5258C19.5214 49.2774 15.5116 45.6875 13.5505 40.5782C13.056 39.2899 12.594 37.3453 12.4239 35.8361C12.267 34.4436 12.4038 32.7131 12.8104 30.9521C14.2651 24.6496 18.8215 20.1444 25.2411 18.6612C25.9431 18.4991 26.6728 18.3499 26.8627 18.3298C27.0526 18.3097 27.2068 18.2606 27.2054 18.2204C27.204 18.1804 27.2029 16.3695 27.2029 14.1964V10.2453L26.702 10.244C26.0397 10.2424 25.2076 10.0195 24.3603 9.61666C23.4423 9.18029 22.0864 7.87599 21.6263 6.98682C21.4437 6.63409 21.2831 6.34704 21.2695 6.3492C21.2558 6.35125 20.5565 6.5759 19.7155 6.84848Z" fill="#100918"/>
<path fill-rule="evenodd" clip-rule="evenodd" d="M41.4588 5.34661L35.2683 10.8346L33.7315 10.547C32.8863 10.3889 31.7691 10.2266 31.2487 10.1862L30.3026 10.113L30.3019 59.2083L30.8569 59.1568C36.0982 58.671 40.9522 56.9605 45.1592 54.1166L46.0623 53.5059L46.6916 54.1021C47.0376 54.4301 47.8944 55.2587 48.5955 55.9436C50.3783 57.685 51.0145 58.2791 51.0932 58.2754C51.1306 58.2738 51.3947 58.093 51.6803 57.8738L52.1995 57.4753L50.5701 55.8877C49.6739 55.0145 48.5517 53.9071 48.0763 53.427L47.2118 52.5539L48.2049 51.6544C49.4174 50.556 49.5865 50.3875 50.2012 49.6653C50.4683 49.3513 50.7994 48.9703 50.9368 48.8184L51.1867 48.5425L52.4008 49.2917C53.0687 49.7037 54.4024 50.5285 55.3646 51.1243C56.3268 51.7202 57.1482 52.2213 57.1899 52.2378C57.3236 52.2909 58.0356 51.214 57.9262 51.1243C57.8689 51.0773 56.5204 50.234 54.9298 49.2504C53.3391 48.2667 52.0375 47.4171 52.0375 47.3623C52.0375 47.3076 52.2494 46.9407 52.5082 46.547C53.008 45.7871 54.0125 43.8597 54.2537 43.198C54.3332 42.98 54.4587 42.7817 54.5326 42.7574C54.6325 42.7245 59.8563 44.4115 61.2738 44.9344C61.4129 44.9857 61.5094 44.848 61.7014 44.3236C61.8868 43.8169 61.9115 43.6463 61.7992 43.6463C61.5884 43.6463 55.195 41.5106 55.068 41.3978C55.0071 41.3438 55.0583 40.9544 55.1913 40.4602C55.993 37.479 56.1905 33.4919 55.6606 30.9858C55.6062 30.729 55.5277 30.3087 55.486 30.0519C55.3161 29.0048 54.6269 26.9196 53.9987 25.5522L53.5287 24.529L55.5602 22.7166L53.731 17.3817C52.725 14.4476 51.612 11.2064 51.2578 10.1791C50.9036 9.15172 49.9884 6.47546 49.2241 4.23186C48.4598 1.98827 47.7927 0.0863809 47.7419 0.0056447C47.674 -0.102177 45.9982 1.32225 41.4588 5.34661ZM32.9979 42.7827L40.1453 36.4173C44.0763 32.9163 47.3266 30.0519 47.368 30.0519C47.4609 30.0519 47.8715 31.5321 48.1452 32.8538C48.3002 33.6026 48.348 34.3762 48.3441 36.0708C48.3393 38.0752 48.3073 38.4349 48.029 39.6097C47.5327 41.706 46.6786 43.6436 45.646 45.0157C42.5148 49.1769 38.2094 50.2023 35.0918 47.5296C33.9034 46.5107 33.2385 45.158 33.06 43.3961L32.9979 42.7827Z" fill="#100918"/>
</svg>
