<svg width="37" height="18" viewBox="0 0 37 18" fill="none" xmlns="http://www.w3.org/2000/svg">
<path d="M5.68877 1.84232C5.06602 2.04433 4.56036 2.27263 3.95994 2.62285C3.76502 2.73659 3.71146 2.78164 3.72677 2.81917C3.86516 3.15814 3.89483 3.61717 3.8008 3.9646C3.70547 4.31702 3.58105 4.52386 3.30153 4.79463C3.03168 5.05604 2.79525 5.19074 2.4637 5.27199C2.19617 5.33752 1.69894 5.31559 1.44468 5.22702L1.26277 5.16364L1.21634 5.22364C0.996432 5.50764 0.538695 6.41622 0.327399 6.98807C0.218192 7.28366 -0.0148906 8.09901 0.00546615 8.11431C0.0100609 8.11778 0.115952 8.17235 0.24074 8.2356C0.633328 8.4345 0.980792 8.8346 1.13032 9.2599C1.1839 9.41229 1.19696 9.51921 1.19851 9.81886C1.20064 10.2233 1.18521 10.29 1.00681 10.6488C0.857495 10.9491 0.524272 11.2792 0.226834 11.4214C0.109684 11.4774 0.0086003 11.5261 0.00224072 11.5296C-0.0200938 11.5419 0.129037 12.1194 0.249229 12.486C0.4311 13.0409 0.656302 13.5316 1.04536 14.2207C1.06377 14.2533 1.08598 14.2866 1.09475 14.2948C1.10351 14.3029 1.13373 14.345 1.16193 14.3882L1.21321 14.4667L1.40466 14.3905C1.55909 14.3291 1.66221 14.3117 1.93774 14.3009C2.24315 14.2888 2.3062 14.2955 2.53253 14.3643C3.14741 14.551 3.64288 15.0683 3.7896 15.6768C3.87444 16.0286 3.82655 16.4898 3.66813 16.8468C3.63412 16.9235 4.33446 17.3211 5.02491 17.6171C5.28748 17.7296 6.07029 18 6.13358 18C6.1505 18 6.18865 17.9504 6.21832 17.8898C6.30593 17.7108 6.56073 17.4198 6.75347 17.2787C7.0028 17.0961 7.33615 16.9664 7.61509 16.9435L7.84038 16.9249L7.85985 16.5955C7.87059 16.4142 7.87942 15.8852 7.87948 15.4198L7.87963 14.5737L7.76552 14.5671C7.564 14.5554 7.4145 14.5302 7.1159 14.4576C5.63275 14.097 4.47577 13.0601 3.90989 11.5844C3.76721 11.2123 3.6339 10.6507 3.58482 10.2148C3.53954 9.81258 3.57904 9.31276 3.69634 8.80413C4.1161 6.98377 5.4308 5.68255 7.28314 5.25417C7.4857 5.20734 7.69624 5.16427 7.75104 5.15846C7.80584 5.15265 7.85033 5.13845 7.84993 5.12686C7.84954 5.1153 7.8492 4.59227 7.8492 3.9646V2.82341L7.70467 2.82305C7.51357 2.82258 7.27346 2.75819 7.029 2.64185C6.76412 2.51581 6.37287 2.1391 6.24011 1.88228C6.18744 1.7804 6.14109 1.69749 6.13717 1.69811C6.13321 1.69871 5.93144 1.76359 5.68877 1.84232Z" fill="#100918"/>
<path fill-rule="evenodd" clip-rule="evenodd" d="M31.4625 1.53343L29.7828 3.1074L29.3658 3.02492C29.1364 2.97956 28.8333 2.93303 28.6921 2.92145L28.4354 2.90044L28.4352 16.9811L28.5858 16.9664C30.008 16.8271 31.325 16.3365 32.4666 15.5208L32.7116 15.3457L32.8824 15.5167C32.9763 15.6107 33.2087 15.8484 33.399 16.0448C33.8827 16.5443 34.0554 16.7146 34.0767 16.7136C34.0869 16.7131 34.1585 16.6613 34.236 16.5984L34.3769 16.4841L33.9348 16.0288C33.6916 15.7784 33.3871 15.4608 33.2581 15.323L33.0235 15.0726L33.293 14.8147C33.622 14.4996 33.6679 14.4513 33.8347 14.2442C33.9072 14.1541 33.997 14.0448 34.0343 14.0013L34.1021 13.9222L34.4315 14.137C34.6127 14.2552 34.9746 14.4917 35.2357 14.6626C35.4968 14.8335 35.7197 14.9773 35.731 14.982C35.7673 14.9972 35.9605 14.6883 35.9308 14.6626C35.9152 14.6491 35.5493 14.4073 35.1177 14.1252C34.6861 13.8431 34.3329 13.5994 34.3329 13.5837C34.3329 13.568 34.3904 13.4627 34.4607 13.3499C34.5963 13.1319 34.8688 12.5791 34.9343 12.3893C34.9559 12.3268 34.9899 12.2699 35.01 12.263C35.0371 12.2535 36.4545 12.7374 36.8391 12.8873C36.8769 12.9021 36.903 12.8626 36.9551 12.7122C37.0055 12.5668 37.0122 12.5179 36.9817 12.5179C36.9245 12.5179 35.1897 11.9054 35.1552 11.873C35.1387 11.8575 35.1526 11.7459 35.1887 11.6041C35.4062 10.7491 35.4598 9.60558 35.316 8.88684C35.3013 8.81318 35.28 8.69264 35.2687 8.61898C35.2226 8.31867 35.0355 7.72064 34.8651 7.32846L34.7376 7.035L35.2888 6.51519L34.7925 4.98514C34.5195 4.14362 34.2175 3.21404 34.1214 2.9194C34.0253 2.62474 33.7769 1.85718 33.5696 1.21371C33.3622 0.570243 33.1812 0.0247743 33.1674 0.00161892C33.1489 -0.0293046 32.6942 0.379226 31.4625 1.53343ZM29.1667 12.2702L31.1061 10.4446C32.1727 9.4405 33.0547 8.61898 33.0659 8.61898C33.0911 8.61898 33.2025 9.04352 33.2768 9.42258C33.3189 9.63735 33.3318 9.8592 33.3308 10.3452C33.3295 10.9201 33.3208 11.0233 33.2453 11.3602C33.1106 11.9614 32.8789 12.5171 32.5987 12.9107C31.7491 14.1041 30.5808 14.3982 29.7349 13.6316C29.4124 13.3394 29.232 12.9515 29.1836 12.4462L29.1667 12.2702Z" fill="#100918"/>
<path d="M8.56214 16.9811L9.92716 2.9717H14.7208L16.0617 16.9811H13.3879L13.1871 14.7205H11.4849L11.3082 16.9811H8.56214ZM11.6856 12.4838H12.9703L12.3521 5.35967H12.2236L11.6856 12.4838Z" fill="#100918"/>
<path d="M16.8004 16.9811V2.9717H19.5305V16.9811H16.8004Z" fill="#100918"/>
<path d="M20.2451 16.9811L21.7627 9.55454L20.5582 2.96374H23.3204L24.0511 7.77948L24.7015 2.96374H27.4716L26.2672 9.55454L27.7768 16.9811H24.9183L24.027 11.5047L23.1116 16.9811H20.2451Z" fill="#100918"/>
</svg>
